<svg width="20" height="20" viewBox="0 0 20 20" fill="none" xmlns="http://www.w3.org/2000/svg">
<g clip-path="url(#clip0_516_635)">
<path fill-rule="evenodd" clip-rule="evenodd" d="M8.11689 6.26543C8.8948 5.86179 9.78019 5.71371 10.6471 5.84226C11.5314 5.97339 12.3501 6.38545 12.9822 7.01758C13.6143 7.64971 14.0264 8.46838 14.1575 9.35268C14.2861 10.2196 14.138 11.105 13.7344 11.8829C13.3307 12.6608 12.6921 13.2916 11.9092 13.6857C11.1264 14.0797 10.2392 14.2168 9.37397 14.0776C8.5087 13.9384 7.70936 13.5298 7.08965 12.9101C6.46994 12.2904 6.06142 11.4911 5.92218 10.6258C5.78295 9.76055 5.9201 8.8734 6.31412 8.09057C6.70814 7.30773 7.33897 6.66908 8.11689 6.26543ZM10.4026 7.4909C9.88249 7.41377 9.35126 7.50262 8.88451 7.7448C8.41776 7.98699 8.03926 8.37018 7.80284 8.83989C7.56643 9.30959 7.48414 9.84187 7.56768 10.361C7.65122 10.8802 7.89634 11.3598 8.26817 11.7316C8.63999 12.1035 9.11959 12.3486 9.63876 12.4321C10.1579 12.5156 10.6902 12.4334 11.1599 12.1969C11.6296 11.9605 12.0128 11.582 12.255 11.1153C12.4972 10.6485 12.586 10.1173 12.5089 9.59715C12.4302 9.06657 12.183 8.57537 11.8037 8.19609C11.4244 7.81682 10.9332 7.56958 10.4026 7.4909Z" fill="#12F7D6"/>
<path d="M14.5833 4.58325C14.123 4.58325 13.7499 4.95635 13.7499 5.41658C13.7499 5.87682 14.123 6.24992 14.5833 6.24992H14.5916C15.0518 6.24992 15.4249 5.87682 15.4249 5.41658C15.4249 4.95635 15.0518 4.58325 14.5916 4.58325H14.5833Z" fill="#12F7D6"/>
<path fill-rule="evenodd" clip-rule="evenodd" d="M0.833252 5.83325C0.833252 3.07183 3.07183 0.833252 5.83325 0.833252H14.1666C16.928 0.833252 19.1666 3.07183 19.1666 5.83325V14.1666C19.1666 16.928 16.928 19.1666 14.1666 19.1666H5.83325C3.07183 19.1666 0.833252 16.928 0.833252 14.1666V5.83325ZM5.83325 2.49992C3.9923 2.49992 2.49992 3.9923 2.49992 5.83325V14.1666C2.49992 16.0075 3.9923 17.4999 5.83325 17.4999H14.1666C16.0075 17.4999 17.4999 16.0075 17.4999 14.1666V5.83325C17.4999 3.9923 16.0075 2.49992 14.1666 2.49992H5.83325Z" fill="#12F7D6"/>
</g>
<defs>
<clipPath id="clip0_516_635">
<rect width="20" height="20" fill="white"/>
</clipPath>
</defs>
</svg>
