<svg width="18" height="18" viewBox="0 0 18 18" fill="none" xmlns="http://www.w3.org/2000/svg">
<path d="M9.0001 0.872314C7.02133 0.872397 5.10716 1.57658 3.60007 2.85885C2.09299 4.14113 1.09135 5.91783 0.774382 7.87105C0.457409 9.82427 0.845786 11.8265 1.87002 13.5196C2.89425 15.2127 4.48751 16.4861 6.3647 17.1119C6.78137 17.1848 6.93762 16.9348 6.93762 16.7161C6.93762 16.5181 6.9272 15.8619 6.9272 15.164C4.83344 15.5494 4.29177 14.6536 4.1251 14.1848C3.94017 13.7289 3.647 13.3249 3.27094 13.0077C2.97927 12.8515 2.5626 12.4661 3.26051 12.4557C3.527 12.4846 3.78259 12.5773 4.00563 12.726C4.22867 12.8747 4.41257 13.0749 4.54177 13.3098C4.65575 13.5146 4.809 13.6948 4.99276 13.8402C5.17652 13.9856 5.38717 14.0934 5.61263 14.1572C5.8381 14.2211 6.07395 14.2398 6.30667 14.2124C6.53939 14.185 6.76441 14.1119 6.96884 13.9973C7.00491 13.5737 7.19372 13.1776 7.5001 12.8828C5.64594 12.6744 3.70844 11.9556 3.70844 8.76817C3.69673 7.93996 4.00234 7.13865 4.5626 6.52859C4.30784 5.80877 4.33765 5.01883 4.64594 4.32026C4.64594 4.32026 5.34383 4.1015 6.9376 5.17442C8.30118 4.7994 9.7407 4.7994 11.1043 5.17442C12.698 4.09109 13.3959 4.32026 13.3959 4.32026C13.7043 5.01882 13.7341 5.80878 13.4793 6.52859C14.0412 7.13761 14.3471 7.93962 14.3334 8.76817C14.3334 11.9661 12.3855 12.6744 10.5314 12.8828C10.7302 13.0843 10.8834 13.3263 10.9805 13.5923C11.0775 13.8584 11.1162 14.1421 11.0939 14.4244C11.0939 15.539 11.0834 16.4348 11.0834 16.7161C11.0834 16.9348 11.2397 17.1953 11.6563 17.1119C13.5302 16.481 15.1189 15.2046 16.1388 13.5107C17.1587 11.8168 17.5433 9.81551 17.2242 7.86418C16.905 5.91285 15.9027 4.13846 14.3963 2.85774C12.8899 1.57702 10.9774 0.873344 9.0001 0.872314Z" fill="#12F7D6"/>
</svg>
