<svg width="20" height="20" viewBox="0 0 20 20" fill="none" xmlns="http://www.w3.org/2000/svg">
<path d="M15.5891 5.58925C15.9145 5.26381 15.9145 4.73617 15.5891 4.41073C15.2637 4.0853 14.736 4.0853 14.4106 4.41073L9.99984 8.82148L5.58909 4.41073C5.26366 4.0853 4.73602 4.0853 4.41058 4.41073C4.08514 4.73617 4.08514 5.26381 4.41058 5.58925L8.82133 9.99999L4.41058 14.4107C4.08514 14.7362 4.08514 15.2638 4.41058 15.5892C4.73602 15.9147 5.26366 15.9147 5.58909 15.5892L9.99984 11.1785L14.4106 15.5892C14.736 15.9147 15.2637 15.9147 15.5891 15.5892C15.9145 15.2638 15.9145 14.7362 15.5891 14.4107L11.1783 9.99999L15.5891 5.58925Z" fill="#292F36"/>
</svg>
