<svg width="24" height="24" viewBox="0 0 24 24" fill="none" xmlns="http://www.w3.org/2000/svg">
<path fill-rule="evenodd" clip-rule="evenodd" d="M1.00014 5.98266C0.999973 5.99253 0.999957 6.00239 1.00009 6.01225V18C1.00009 19.6523 2.3478 21 4.00009 21H20.0001C21.6524 21 23.0001 19.6523 23.0001 18V6.01236C23.0002 6.00242 23.0002 5.99247 23 5.98251C22.9906 4.33822 21.6465 3 20.0001 3H4.00009C2.35359 3 1.00953 4.3383 1.00014 5.98266ZM3.10666 5.55395C3.27204 5.22692 3.61212 5 4.00009 5H20.0001C20.3881 5 20.7281 5.22692 20.8935 5.55395L12.0001 11.7793L3.10666 5.55395ZM21.0001 7.92066V18C21.0001 18.5477 20.5478 19 20.0001 19H4.00009C3.45237 19 3.00009 18.5477 3.00009 18V7.92066L11.4266 13.8192C11.7709 14.0603 12.2292 14.0603 12.5735 13.8192L21.0001 7.92066Z" fill="white"/>
</svg>
