<svg width="21" height="20" viewBox="0 0 21 20" fill="none" xmlns="http://www.w3.org/2000/svg">
<path fill-rule="evenodd" clip-rule="evenodd" d="M9.66699 3.5C12.7965 3.50018 15.333 6.03749 15.333 9.16699C15.3329 10.6901 14.732 12.0727 13.7544 13.0908C13.7245 13.1146 13.6956 13.1403 13.6679 13.168C13.6402 13.1956 13.6145 13.2245 13.5907 13.2545C12.5726 14.2321 11.19 14.8329 9.66699 14.833C6.53749 14.833 4.00018 12.2965 4 9.16699C4 6.03738 6.53738 3.5 9.66699 3.5ZM14.3345 15.2487C13.0419 16.2422 11.4235 16.8329 9.66699 16.833C5.43292 16.833 2.00018 13.401 2 9.16699C2 4.93281 5.43281 1.5 9.66699 1.5C13.901 1.50018 17.333 4.93292 17.333 9.16699C17.3329 10.9235 16.7422 12.542 15.7486 13.8346L18.707 16.793L18.7753 16.8691C19.0957 17.2619 19.0731 17.8409 18.707 18.207C18.3408 18.5731 17.7618 18.5957 17.3691 18.2754L17.2929 18.207L14.3345 15.2487Z" fill="white"/>
</svg>
