<svg width="20" height="20" viewBox="0 0 20 20" fill="none" xmlns="http://www.w3.org/2000/svg">
<path fill-rule="evenodd" clip-rule="evenodd" d="M9.16699 3.5C12.2965 3.50018 14.833 6.03749 14.833 9.16699C14.8329 10.6901 14.232 12.0727 13.2544 13.0908C13.2245 13.1146 13.1956 13.1403 13.1679 13.168C13.1402 13.1956 13.1145 13.2245 13.0907 13.2545C12.0726 14.2321 10.69 14.8329 9.16699 14.833C6.03749 14.833 3.50018 12.2965 3.5 9.16699C3.5 6.03738 6.03738 3.5 9.16699 3.5ZM13.8345 15.2487C12.5419 16.2422 10.9235 16.8329 9.16699 16.833C4.93292 16.833 1.50018 13.401 1.5 9.16699C1.5 4.93281 4.93281 1.5 9.16699 1.5C13.401 1.50018 16.833 4.93292 16.833 9.16699C16.8329 10.9235 16.2422 12.542 15.2486 13.8346L18.207 16.793L18.2753 16.8691C18.5957 17.2619 18.5731 17.8409 18.207 18.207C17.8408 18.5731 17.2618 18.5957 16.8691 18.2754L16.7929 18.207L13.8345 15.2487Z" fill="#292F36"/>
</svg>
